<?xml version="1.0" standalone="no"?>
<!DOCTYPE svg PUBLIC "-//W3C//DTD SVG 20010904//EN"
 "http://www.w3.org/TR/2001/REC-SVG-20010904/DTD/svg10.dtd">
<svg version="1.0" xmlns="http://www.w3.org/2000/svg"
 width="512.000000pt" height="512.000000pt" viewBox="0 0 512.000000 512.000000"
 preserveAspectRatio="xMidYMid meet">

<g transform="translate(0.000000,512.000000) scale(0.100000,-0.100000)"
fill="#000000" stroke="none">
<path d="M2330 5110 c-494 -48 -950 -230 -1350 -538 -195 -150 -448 -432 -594
-662 -63 -99 -186 -351 -230 -471 -49 -134 -102 -340 -128 -499 -31 -195 -31
-565 0 -760 45 -276 116 -498 237 -745 132 -269 269 -460 489 -681 221 -220
412 -357 681 -489 247 -121 469 -192 745 -237 195 -31 565 -31 760 0 276 45
498 116 745 237 269 132 460 269 681 489 220 221 357 412 489 681 88 179 132
296 180 476 63 240 78 371 78 649 0 278 -15 409 -78 649 -48 180 -92 297 -180
476 -132 269 -269 460 -489 681 -221 220 -412 357 -681 489 -246 121 -474 193
-740 235 -147 23 -475 34 -615 20z m308 -390 c110 -79 229 -294 321 -580 53
-165 142 -563 128 -576 -29 -29 -1025 -29 -1054 0 -14 13 75 411 128 576 118
364 278 610 399 610 25 0 50 -10 78 -30z m-658 -55 c0 -3 -16 -37 -35 -75
-101 -200 -183 -467 -250 -813 -17 -92 -34 -170 -37 -173 -14 -13 -428 71
-597 122 -130 39 -281 96 -281 106 0 20 154 200 256 299 241 233 506 396 824
505 95 33 120 39 120 29z m1254 -20 c314 -101 604 -276 850 -514 102 -99 256
-279 256 -299 0 -10 -151 -67 -281 -106 -167 -50 -583 -135 -596 -122 -3 3
-23 94 -44 203 -66 332 -145 587 -244 783 -19 38 -35 72 -35 75 0 8 11 6 94
-20z m-2506 -1195 c174 -68 495 -151 737 -190 72 -12 135 -23 140 -25 7 -2 7
-55 -2 -166 -16 -211 -16 -807 0 -1018 9 -111 9 -164 2 -166 -5 -2 -68 -13
-140 -25 -265 -43 -579 -126 -775 -205 l-105 -43 -33 70 c-49 106 -108 289
-136 423 -92 447 -47 908 130 1320 l36 84 37 -15 c20 -9 69 -29 109 -44z
m3911 -198 c75 -220 111 -448 111 -692 0 -77 -5 -184 -11 -238 -23 -211 -93
-472 -171 -640 l-33 -70 -105 43 c-196 79 -510 162 -775 205 -71 12 -135 23
-140 25 -7 2 -7 55 2 166 16 211 16 807 0 1018 -9 111 -9 164 -2 166 5 2 69
13 140 25 265 43 579 126 775 205 l105 43 33 -70 c17 -38 50 -122 71 -186z
m-2079 -77 c124 0 304 4 401 8 l176 8 6 -58 c4 -32 12 -174 18 -316 11 -244 2
-643 -18 -830 l-6 -58 -176 8 c-97 4 -277 8 -401 8 -124 0 -304 -4 -401 -8
l-176 -8 -6 58 c-4 32 -12 174 -18 316 -11 244 -2 643 18 830 l6 58 176 -8
c97 -4 277 -8 401 -8z m393 -1605 c71 -4 131 -11 134 -14 14 -13 -75 -411
-128 -576 -118 -364 -278 -610 -399 -610 -121 0 -281 246 -399 610 -54 169
-142 563 -127 577 19 19 689 29 919 13z m-1289 -67 c3 -10 17 -81 31 -158 61
-326 150 -617 251 -816 19 -39 33 -73 31 -76 -7 -7 -154 41 -254 82 -255 106
-483 257 -687 454 -102 99 -256 279 -256 299 0 10 151 67 282 106 109 33 276
71 438 101 156 29 158 29 164 8z m1927 -3 c149 -26 355 -72 468 -106 130 -39
281 -96 281 -106 0 -20 -154 -200 -256 -299 -204 -197 -432 -348 -687 -454
-100 -41 -247 -89 -254 -82 -2 3 12 37 31 76 101 199 190 490 251 816 29 155
34 175 42 175 3 0 59 -9 124 -20z"/>
</g>
</svg>
