<?xml version="1.0" standalone="no"?>
<!DOCTYPE svg PUBLIC "-//W3C//DTD SVG 20010904//EN"
 "http://www.w3.org/TR/2001/REC-SVG-20010904/DTD/svg10.dtd">
<svg version="1.0" xmlns="http://www.w3.org/2000/svg"
 width="24.000000pt" height="24.000000pt" viewBox="0 0 24.000000 24.000000"
 preserveAspectRatio="xMidYMid meet">

<g transform="translate(0.000000,24.000000) scale(0.100000,-0.100000)"
fill="#000000" stroke="none">
<path d="M48 201 c-32 -28 -33 -32 -33 -108 l0 -79 79 1 c75 0 79 2 107 33 43
47 41 102 -5 148 -46 46 -101 48 -148 5z m137 -16 c18 -17 25 -35 25 -62 -1
-67 -44 -99 -120 -88 -46 6 -48 8 -54 43 -10 62 -7 78 20 106 36 35 95 36 129
1z"/>
<path d="M67 157 c-6 -15 16 -53 43 -74 32 -25 87 -9 56 16 -10 8 -16 9 -21 1
-11 -17 -43 8 -47 37 -3 29 -23 42 -31 20z"/>
</g>
</svg>
