<?xml version="1.0" standalone="no"?>
<!DOCTYPE svg PUBLIC "-//W3C//DTD SVG 20010904//EN"
 "http://www.w3.org/TR/2001/REC-SVG-20010904/DTD/svg10.dtd">
<svg version="1.0" xmlns="http://www.w3.org/2000/svg"
 width="512.000000pt" height="512.000000pt" viewBox="0 0 512.000000 512.000000"
 preserveAspectRatio="xMidYMid meet">

<g transform="translate(0.000000,512.000000) scale(0.100000,-0.100000)"
fill="#000000" stroke="none">
<path d="M630 4464 c-145 -39 -256 -152 -294 -299 -14 -52 -16 -195 -16 -1136
0 -1044 1 -1079 20 -1141 37 -120 111 -205 230 -262 l65 -31 746 -3 745 -3 34
23 c105 71 108 197 7 272 -28 21 -37 21 -754 26 l-725 5 -24 28 -24 28 2 1069
3 1069 23 23 23 23 1469 0 1469 0 23 -23 23 -23 5 -417 c5 -382 7 -420 23
-447 31 -50 76 -75 136 -75 69 0 113 26 141 85 21 42 21 53 18 472 -3 408 -4
430 -24 479 -47 115 -133 202 -241 246 l-58 23 -1495 2 c-1293 2 -1502 0
-1550 -13z"/>
<path d="M1046 3817 c-61 -34 -81 -69 -81 -136 0 -36 6 -66 17 -83 28 -42 977
-808 1037 -835 104 -49 235 -39 328 24 80 54 973 784 989 808 9 13 18 42 21
63 15 110 -81 199 -192 178 -26 -5 -156 -103 -508 -383 -259 -207 -478 -380
-485 -386 -14 -11 14 -33 -558 424 -231 185 -432 339 -445 342 -44 12 -84 7
-123 -16z"/>
<path d="M3525 2869 c-293 -43 -564 -205 -744 -444 -29 -38 -77 -119 -107
-180 -148 -304 -151 -652 -9 -952 157 -332 444 -557 810 -635 77 -16 333 -16
410 0 463 99 798 434 897 897 16 77 16 333 0 410 -103 486 -474 836 -957 905
-83 11 -216 11 -300 -1z m360 -334 c155 -42 322 -152 420 -277 319 -407 183
-995 -281 -1219 -393 -190 -874 -20 -1064 375 -60 126 -74 190 -74 346 0 152
13 216 70 340 109 236 344 411 609 454 57 9 260 -3 320 -19z"/>
<path d="M3615 2226 c-73 -33 -95 -83 -95 -211 l0 -93 -109 -4 c-118 -3 -141
-12 -185 -72 -29 -39 -29 -133 0 -172 44 -60 67 -69 184 -72 l108 -4 4 -108
c3 -117 12 -140 72 -184 39 -29 133 -29 172 0 60 44 69 67 72 184 l4 108 108
4 c91 2 113 6 136 24 53 39 69 71 69 134 0 63 -16 95 -69 134 -23 18 -45 22
-136 24 l-108 4 -4 108 c-3 117 -12 140 -70 183 -34 25 -113 32 -153 13z"/>
</g>
</svg>
